<?xml version="1.0" encoding="UTF-8"?>
<svg xmlns="http://www.w3.org/2000/svg" xmlns:xlink="http://www.w3.org/1999/xlink" width="36pt" height="36pt" viewBox="0 0 36 36" version="1.1">
<style>
	svg{
		cursor: pointer;
	}
</style>
<g id="surface1">
<path style=" stroke:none;fill-rule:nonzero;fill:rgb(0%,0%,0%);fill-opacity:1;" d="M 33.550781 9.394531 C 31.941406 6.640625 29.761719 4.457031 27.007812 2.851562 C 24.25 1.242188 21.242188 0.4375 17.980469 0.4375 C 14.71875 0.4375 11.710938 1.242188 8.957031 2.851562 C 6.199219 4.457031 4.019531 6.640625 2.414062 9.394531 C 0.804688 12.152344 0 15.160156 0 18.417969 C 0 22.339844 1.140625 25.863281 3.429688 28.992188 C 5.71875 32.121094 8.671875 34.285156 12.292969 35.488281 C 12.714844 35.566406 13.027344 35.511719 13.226562 35.324219 C 13.433594 35.140625 13.53125 34.902344 13.53125 34.621094 C 13.53125 34.578125 13.527344 34.15625 13.519531 33.359375 C 13.511719 32.5625 13.507812 31.867188 13.507812 31.277344 L 12.96875 31.367188 C 12.628906 31.433594 12.195312 31.457031 11.671875 31.449219 C 11.148438 31.441406 10.605469 31.386719 10.042969 31.285156 C 9.480469 31.1875 8.957031 30.949219 8.476562 30.582031 C 7.992188 30.21875 7.648438 29.738281 7.445312 29.144531 L 7.210938 28.605469 C 7.054688 28.25 6.808594 27.847656 6.472656 27.414062 C 6.136719 26.976562 5.796875 26.679688 5.457031 26.523438 L 5.289062 26.40625 C 5.179688 26.328125 5.078125 26.234375 4.988281 26.125 C 4.894531 26.015625 4.824219 25.90625 4.777344 25.796875 C 4.726562 25.6875 4.769531 25.597656 4.894531 25.527344 C 5.019531 25.457031 5.246094 25.421875 5.570312 25.421875 L 6.039062 25.492188 C 6.351562 25.554688 6.738281 25.742188 7.199219 26.054688 C 7.660156 26.363281 8.039062 26.773438 8.335938 27.269531 C 8.695312 27.910156 9.128906 28.398438 9.636719 28.734375 C 10.140625 29.070312 10.652344 29.238281 11.167969 29.238281 C 11.683594 29.238281 12.125 29.199219 12.503906 29.121094 C 12.875 29.042969 13.226562 28.925781 13.554688 28.769531 C 13.695312 27.722656 14.078125 26.917969 14.703125 26.359375 C 13.8125 26.265625 13.011719 26.125 12.300781 25.9375 C 11.59375 25.746094 10.859375 25.445312 10.101562 25.023438 C 9.34375 24.601562 8.714844 24.078125 8.21875 23.453125 C 7.71875 22.828125 7.308594 22.011719 6.988281 20.996094 C 6.667969 19.980469 6.507812 18.8125 6.507812 17.484375 C 6.507812 15.59375 7.125 13.988281 8.359375 12.660156 C 7.78125 11.242188 7.835938 9.648438 8.519531 7.882812 C 8.976562 7.742188 9.644531 7.847656 10.535156 8.199219 C 11.425781 8.550781 12.074219 8.851562 12.492188 9.101562 C 12.90625 9.351562 13.238281 9.5625 13.488281 9.734375 C 14.9375 9.328125 16.4375 9.125 17.980469 9.125 C 19.527344 9.125 21.027344 9.328125 22.476562 9.734375 L 23.367188 9.171875 C 23.972656 8.796875 24.691406 8.453125 25.519531 8.144531 C 26.347656 7.832031 26.980469 7.742188 27.417969 7.882812 C 28.117188 9.648438 28.183594 11.242188 27.605469 12.660156 C 28.835938 13.988281 29.453125 15.597656 29.453125 17.484375 C 29.453125 18.8125 29.292969 19.984375 28.972656 21.007812 C 28.65625 22.03125 28.242188 22.847656 27.734375 23.46875 C 27.226562 24.082031 26.59375 24.601562 25.835938 25.023438 C 25.078125 25.445312 24.34375 25.746094 23.636719 25.9375 C 22.925781 26.125 22.125 26.265625 21.238281 26.359375 C 22.046875 27.058594 22.453125 28.167969 22.453125 29.683594 L 22.453125 34.621094 C 22.453125 34.902344 22.550781 35.136719 22.746094 35.324219 C 22.941406 35.511719 23.25 35.566406 23.671875 35.488281 C 27.292969 34.285156 30.246094 32.121094 32.53125 28.992188 C 34.820312 25.863281 35.960938 22.335938 35.960938 18.417969 C 35.960938 15.160156 35.160156 12.152344 33.550781 9.394531 Z M 33.550781 9.394531 "/>
</g>
</svg>
